PathFileType	4	(X/Y/Z)	c:/Users/goper/Files/vsCode/490R/osim_files/C04/C04_Static.trc
DataRate	CameraRate	NumFrames	NumMarkers	Units                	OrigDataRate	OrigDataStartFrame	OrigNumFrames
250.00	250.00	5	36	mm	250.0	1265	1445
                Frame#	Time	LPSIS			LASIS			LTH1			LTH2			LTH3			LTH4			LLFE			LMFE			LSH1			LSH2			LSH3			LSH4			LLMAL			LMMAL			LCAL			LMTP5			LTOE			LMTP1			RPSIS			RASIS			RTH1			RTH2			RTH3			RTH4			RLFE			RMFE			RSH1			RSH2			RSH3			RSH4			RLMAL			RMMAL			RCAL			RMTP1			RTOE			RMTP5		
		X1	Y1	Z1	X2	Y2	Z2	X3	Y3	Z3	X4	Y4	Z4	X5	Y5	Z5	X6	Y6	Z6	X7	Y7	Z7	X8	Y8	Z8	X9	Y9	Z9	X10	Y10	Z10	X11	Y11	Z11	X12	Y12	Z12	X13	Y13	Z13	X14	Y14	Z14	X15	Y15	Z15	X16	Y16	Z16	X17	Y17	Z17	X18	Y18	Z18	X19	Y19	Z19	X20	Y20	Z20	X21	Y21	Z21	X22	Y22	Z22	X23	Y23	Z23	X24	Y24	Z24	X25	Y25	Z25	X26	Y26	Z26	X27	Y27	Z27	X28	Y28	Z28	X29	Y29	Z29	X30	Y30	Z30	X31	Y31	Z31	X32	Y32	Z32	X33	Y33	Z33	X34	Y34	Z34	X35	Y35	Z35	X36	Y36	Z36

1265	5.05600	-355.79718	976.62683	415.59097	-191.04784	964.25208	335.74866	-325.94229	730.14606	275.44122	-320.86890	668.72052	278.96561	-260.62247	740.46674	261.18353	-246.56966	679.15448	264.42471	-297.74619	463.24936	278.15338	-282.02594	437.59680	391.42691	-361.60791	363.98642	266.94205	-370.45959	316.74982	266.26175	-310.33090	361.41031	256.62262	-310.82471	314.23975	254.01511	-347.88989	76.95592	252.27751	-324.20148	91.17606	343.43735	-404.83826	48.26493	312.78818	-220.38380	21.50180	210.46913	-186.45511	47.56666	258.15451	-205.98016	21.54923	317.31580	0.00000	0.00000	0.00000	-183.07928	958.33295	549.20947	-308.19196	747.43805	631.76221	-309.65314	684.86890	628.54358	-245.13339	750.69257	633.65253	-233.19363	689.71613	632.21661	-279.74921	465.81247	618.36914	-281.77939	447.79117	506.66830	-358.92639	339.88739	644.73706	-353.06448	294.67194	646.77686	-297.29880	340.22525	647.26447	-300.68170	293.28427	651.16357	-336.46469	80.65190	648.31464	-314.21304	87.55596	558.72357	-392.13599	48.18579	594.64746	-190.23294	31.28870	586.24506	-166.95030	47.42915	635.45844	-209.25241	18.17676	690.74963
1266	5.06000	-355.88220	976.64008	415.60629	-191.11128	964.24884	335.74860	-326.00345	730.11658	275.46564	-320.99829	668.68262	279.01364	-260.72168	740.45166	261.19299	-246.62297	679.12842	264.39911	-297.81091	463.23257	278.16119	-282.04361	437.58691	391.43515	-361.63336	363.98074	266.92456	-370.48434	316.72324	266.29352	-310.36542	361.39035	256.64041	-310.86810	314.21313	254.02966	-347.92743	76.91472	252.31532	-324.19730	91.16196	343.43658	-404.83578	48.23919	312.79260	-220.37294	21.49973	210.47408	-186.45879	47.55069	258.15457	-205.97717	21.52669	317.32874	0.00000	0.00000	0.00000	-183.16142	958.31500	549.21289	-308.26428	747.41193	631.78033	-309.71133	684.87671	628.56262	-245.19154	750.70648	633.65643	-233.26523	689.65955	632.21942	-279.77161	465.79980	618.36346	-281.81735	447.77731	506.68771	-358.93182	339.87158	644.76740	-353.11105	294.62897	646.76495	-297.32315	340.20926	647.26996	-300.70718	293.28571	651.20630	-336.48523	80.62199	648.31195	-314.24005	87.54402	558.73224	-392.13101	48.16333	594.66437	-190.24466	31.26930	586.25031	-166.97052	47.40711	635.46625	-209.25189	18.16553	690.76685
1267	5.06400	-355.95877	976.62781	415.55136	-191.17247	964.24249	335.73642	-325.35913	730.51160	274.81104	-320.95673	668.73676	278.95883	-260.78088	740.43744	261.19501	-246.68304	679.13086	264.42697	-297.82950	463.23273	278.15695	-282.12363	437.52872	391.41675	-361.68179	363.97342	266.90723	-370.49753	316.72833	266.25769	-310.37418	361.39929	256.62994	-310.89270	314.20120	254.01936	-347.89322	76.90997	252.31927	-324.20844	91.13405	343.45193	-404.81921	48.24743	312.80698	-220.37762	21.49261	210.47237	-186.45656	47.54424	258.16052	-205.99524	21.50631	317.33450	0.00000	0.00000	0.00000	-183.25475	958.30127	549.20233	-308.33481	747.35461	631.77185	-309.76855	684.83502	628.55579	-245.29237	750.63977	633.63025	-233.34981	689.66174	632.22925	-279.84384	465.75415	618.34314	-281.86722	447.75958	506.68491	-358.96341	339.81497	644.75623	-353.14438	294.55289	646.75195	-297.35883	340.18555	647.25537	-300.69440	293.25134	651.19409	-336.49585	80.56290	648.30762	-314.24774	87.52948	558.72607	-392.17221	48.12104	594.72382	-190.24048	31.25523	586.24963	-166.97749	47.39376	635.48480	-209.25200	18.14585	690.75189
1268	5.06800	-356.10825	976.66187	415.58194	-191.22874	964.23962	335.73291	-325.41736	730.50555	274.78848	-321.08862	668.68256	278.98083	-260.85458	740.44849	261.20401	-246.71510	679.13904	264.42569	-297.89038	463.22867	278.17401	-282.17892	437.52542	391.41113	-361.71997	363.97809	266.92349	-370.51483	316.71677	266.25159	-310.39697	361.38849	256.64264	-310.91824	314.20822	254.00551	-347.91599	76.89929	252.33080	-324.22589	91.11855	343.44788	-404.86029	48.25169	312.83060	-220.33769	21.48158	210.49812	-186.45813	47.53531	258.16208	-205.97766	21.49308	317.33521	0.00000	0.00000	0.00000	-183.34135	958.26392	549.20801	-308.43109	747.35321	631.77020	-309.84653	684.79962	628.57623	-245.34198	750.63550	633.66498	-233.36378	689.64496	632.22632	-279.88547	465.74240	618.35565	-281.91348	447.76230	506.69223	-358.96912	339.81567	644.78424	-353.17908	294.53165	646.77002	-297.39297	340.15152	647.28125	-300.71774	293.23956	651.21869	-336.47849	80.57066	648.32562	-314.22678	87.52940	558.73389	-392.14679	48.13807	594.70966	-190.22826	31.24809	586.26587	-166.99150	47.38853	635.48651	-209.26529	18.12258	690.74408
1269	5.07200	-356.19415	976.66266	415.59595	-191.28528	964.25110	335.74200	-325.50009	730.49274	274.80368	-321.19604	668.67688	279.03635	-260.92715	740.43311	261.22092	-246.79272	679.13971	264.42456	-297.92389	463.24341	278.16052	-282.22388	437.51480	391.41275	-361.75854	363.97794	266.93887	-370.55322	316.75354	266.24796	-310.45004	361.38663	256.66003	-310.93591	314.18008	254.02159	-347.90067	76.95686	252.30304	-324.22046	91.10612	343.44531	-404.83978	48.23702	312.81885	-220.35625	21.48950	210.50800	-186.46809	47.52547	258.16269	-205.99510	21.49497	317.33270	0.00000	0.00000	0.00000	-183.42560	958.24670	549.19794	-308.46802	747.34631	631.78204	-309.88458	684.84003	628.58215	-245.41588	750.60931	633.61798	-233.43466	689.64105	632.21613	-279.92810	465.73352	618.35028	-281.93408	447.75336	506.70056	-359.03467	339.78790	644.74310	-353.20938	294.52798	646.75928	-297.42001	340.15582	647.28516	-300.76291	293.22128	651.19360	-336.51047	80.53252	648.31750	-314.21545	87.52894	558.74854	-392.13431	48.14653	594.69116	-190.23552	31.23873	586.25964	-166.97163	47.40447	635.48926	-209.27499	18.12056	690.73901
